#!Matlab matrix to amc conversion
:FULLY-SPECIFIED
:DEGREES
16
root 9.192140 16.357400 -29.724600 1.295145 1.634016 -0.112204
lowerback -4.470472 -0.122165 -1.138459
upperback -3.278976 -0.158993 1.594083
thorax -0.815172 -0.034709 2.360397
lowerneck -15.743721 1.083149 0.260360
upperneck 41.563813 2.805757 -2.523001
head 19.102309 0.869458 -0.706970
rclavicle -0.000000 0.000000
rhumerus -44.037774 -18.474085 -67.563546
rradius 22.302629
rwrist -3.517421
rhand -5.748700 11.964589
rfingers 7.125020
rthumb 20.080142 -16.983883
lclavicle -0.000000 0.000000
lhumerus -40.771518 21.541997 67.382690
lradius 39.210272
lwrist -0.241427
lhand -5.931783 20.714368
lfingers 7.125020
lthumb 19.898553 49.672956
rfemur -34.054957 16.181052 17.068879
rtibia 27.833842
rfoot -16.249903 -20.164860
rtoes 4.681176
lfemur 4.032691 -5.587219 -24.880778
ltibia 24.220490
lfoot -9.790800 12.973553
ltoes -26.351440
17
root 9.191770 16.245600 -29.440800 1.482503 1.634016 -0.092967
lowerback -5.124127 -0.011811 0.155057
upperback -3.391883 -0.050078 2.044524
thorax -0.639162 0.001834 2.049361
lowerneck -15.450370 1.108115 0.268467
upperneck 41.986794 2.899138 -2.594290
head 19.285406 0.900003 -0.732048
rclavicle -0.000000 0.000000
rhumerus -44.518274 -19.101994 -66.418547
rradius 21.412803
rwrist -2.561277
rhand -5.659746 11.777712
rfingers 7.125020
rthumb 20.165068 -17.167363
lclavicle -0.000000 0.000000
lhumerus -43.449414 23.870159 65.076997
lradius 35.136161
lwrist -0.614188
lhand -5.899563 22.251575
lfingers 7.125020
lthumb 19.931134 51.204353
rfemur -32.304975 15.607439 19.773790
rtibia 29.010675
rfoot -14.824760 -18.633086
rtoes 5.540924
lfemur 2.615881 -4.235176 -22.988611
ltibia 29.933477
lfoot -6.894207 11.695435
ltoes -27.047236
18
root 9.208550 16.156600 -29.151500 1.712258 1.634016 -0.046891
lowerback -5.776537 0.108330 1.526006
upperback -3.498893 0.070801 2.509484
thorax -0.460195 0.044149 1.732730
lowerneck -15.153472 1.130373 0.276464
upperneck 42.407889 2.983778 -2.655413
head 19.467207 0.928647 -0.760903
rclavicle -0.000000 0.000000
rhumerus -44.979777 -19.741063 -65.267721
rradius 20.504292
rwrist -1.574706
rhand -5.572050 11.516933
rfingers 7.125020
rthumb 20.249042 -17.422877
lclavicle -0.000000 0.000000
lhumerus -46.287664 26.260708 62.683372
lradius 30.929148
lwrist -1.040862
lhand -5.864056 23.793912
lfingers 7.125020
lthumb 19.966987 52.740628
rfemur -30.447143 15.049143 22.625521
rtibia 30.222321
rfoot -13.445717 -17.091033
rtoes 6.232597
lfemur 0.935586 -2.660880 -20.935643
ltibia 36.176400
lfoot -3.767287 10.391932
ltoes -27.069064
19
root 9.222000 16.080900 -28.855000 1.902425 1.634016 -0.005051
lowerback -5.247639 0.264527 2.128037
upperback -3.360956 0.293270 2.575712
thorax -0.597298 0.143206 1.506499
lowerneck -15.169627 0.969051 0.281075
upperneck 42.454862 2.618959 -2.402378
head 19.529335 0.822303 -0.723362
rclavicle -0.000000 0.000000
rhumerus -44.082928 -19.325279 -65.716824
rradius 20.748424
rwrist -2.268785
rhand -5.375901 11.364923
rfingers 7.125020
rthumb 20.437872 -17.561404
lclavicle -0.000000 0.000000
lhumerus -50.842737 30.515309 57.201970
lradius 26.543925
lwrist -5.069191
lhand -5.151730 24.230384
lfingers 7.125020
lthumb 20.648516 53.105099
rfemur -27.666369 15.046743 24.312089
rtibia 30.654658
rfoot -14.496736 -17.281730
rtoes 6.481994
lfemur -4.163242 -0.924753 -19.314397
ltibia 45.681059
lfoot -1.537278 10.796969
ltoes -23.276868
20
root 9.232280 16.013400 -28.551200 2.027094 1.634016 -0.006897
lowerback -4.738016 0.417603 2.727813
upperback -3.232876 0.513503 2.637263
thorax -0.721490 0.240897 1.277122
lowerneck -15.206418 0.809353 0.295097
upperneck 42.516609 2.262299 -2.175873
head 19.600320 0.717554 -0.696070
rclavicle -0.000000 0.000000
rhumerus -43.246662 -18.930644 -66.133971
rradius 20.989690
rwrist -2.988674
rhand -5.171601 11.278123
rfingers 7.125020
rthumb 20.634814 -17.631506
lclavicle -0.000000 0.000000
lhumerus -55.255691 34.692384 51.841387
lradius 22.361894
lwrist -8.930090
lhand -4.419775 24.659899
lfingers 7.125020
lthumb 21.349173 53.461491
rfemur -25.059165 15.099412 25.887122
rtibia 30.951777
rfoot -15.548595 -17.526933
rtoes 6.690193
lfemur -9.106252 0.751728 -17.755777
ltibia 54.647972
lfoot 0.194872 11.268449
ltoes -20.443293
21
root 9.239730 15.970900 -28.241000 2.077788 1.634016 -0.030727
lowerback -4.423873 0.845039 2.908688
upperback -3.146108 1.106561 2.447811
thorax -0.759436 0.533333 1.025803
lowerneck -15.191480 0.638281 0.516969
upperneck 42.475870 1.797489 -1.973114
head 19.532393 0.609143 -0.741917
rclavicle -0.000000 0.000000
rhumerus -42.011868 -17.306854 -67.524853
rradius 22.686397
rwrist -4.790035
rhand -5.451776 11.255093
rfingers 7.125020
rthumb 20.363585 -17.676498
lclavicle -0.000000 0.000000
lhumerus -55.774781 34.416100 52.481070
lradius 22.327405
lwrist -9.011692
lhand -3.251173 23.970724
lfingers 7.125020
lthumb 22.469400 52.603907
rfemur -23.442674 15.788359 26.533041
rtibia 31.153804
rfoot -16.178928 -17.813709
rtoes 7.211568
lfemur -13.850947 2.397337 -17.203553
ltibia 57.076488
lfoot -3.034469 12.106569
ltoes -19.268191
22
root 9.241850 15.946000 -27.925100 2.102933 1.634016 -0.038661
lowerback -4.110660 1.234317 3.027796
upperback -3.060909 1.631704 2.277369
thorax -0.800267 0.792337 0.805105
lowerneck -15.178414 0.483529 0.702602
upperneck 42.422227 1.382408 -1.812428
head 19.458169 0.510287 -0.772314
rclavicle -0.000000 0.000000
rhumerus -40.966885 -15.963432 -68.660036
rradius 24.294252
rwrist -6.366110
rhand -5.726070 11.242030
rfingers 7.125020
rthumb 20.098188 -17.703586
lclavicle -0.000000 0.000000
lhumerus -56.201796 34.125995 53.135380
lradius 22.340258
lwrist -8.987365
lhand -2.146742 23.300120
lfingers 7.125020
lthumb 23.528181 51.769013
rfemur -21.921188 16.421028 27.076806
rtibia 31.283345
rfoot -16.702455 -18.042010
rtoes 7.625597
lfemur -17.984505 3.272872 -16.834522
ltibia 58.433727
lfoot -5.833511 12.813143
ltoes -18.663421
23
root 9.242890 15.925900 -27.604900 2.116096 1.634016 -0.040921
lowerback -3.794380 1.602685 3.110113
upperback -2.974469 2.121783 2.111887
thorax -0.845295 1.034034 0.598065
lowerneck -15.166344 0.337862 0.865513
upperneck 42.355005 0.993309 -1.668748
head 19.376560 0.416438 -0.791247
rclavicle -0.000000 0.000000
rhumerus -40.004902 -14.737501 -69.700789
rradius 25.868139
rwrist -7.843315
rhand -6.000688 11.234405
rfingers 7.125020
rthumb 19.832626 -17.722262
lclavicle -0.000000 0.000000
lhumerus -56.553326 33.812207 53.822448
lradius 22.401796
lwrist -8.855593
lhand -1.080404 22.638595
lfingers 7.125020
lthumb 24.550501 50.945292
rfemur -20.443921 17.016246 27.557512
rtibia 31.379165
rfoot -17.171839 -18.226060
rtoes 7.960066
lfemur -21.801823 3.786569 -16.586604
ltibia 59.088164
lfoot -8.452446 13.451538
ltoes -18.361176
24
root 9.243090 15.943100 -27.273700 2.124377 1.634016 -0.040421
lowerback -3.470997 1.966465 3.172903
upperback -2.883940 2.607456 1.937727
thorax -0.895966 1.273466 0.388768
lowerneck -15.154459 0.194469 1.017563
upperneck 42.273357 0.607929 -1.519658
head 19.286371 0.323278 -0.801199
rclavicle -0.000000 0.000000
rhumerus -39.027592 -13.480428 -70.794963
rradius 27.461779
rwrist -9.340134
rhand -6.281840 11.229579
rfingers 7.125020
rthumb 19.560899 -17.739067
lclavicle -0.000000 0.000000
lhumerus -56.843029 33.464067 54.561310
lradius 22.518444
lwrist -8.608153
lhand -0.026983 21.976784
lfingers 7.125020
lthumb 25.560485 50.121379
rfemur -18.961562 17.591724 28.009718
rtibia 31.469936
rfoot -17.634293 -18.377327
rtoes 8.237423
lfemur -25.575238 4.177949 -16.418092
ltibia 59.217469
lfoot -11.125368 14.079005
ltoes -18.227612
25
root 9.241190 15.944900 -26.946700 2.132247 1.634016 -0.036514
lowerback -3.136385 2.341777 3.229333
upperback -2.786334 3.119107 1.740531
thorax -0.953908 1.525540 0.161129
lowerneck -15.141960 0.046647 1.169825
upperneck 42.176256 0.204223 -1.341898
head 19.186280 0.226518 -0.803477
rclavicle -0.000000 0.000000
rhumerus -37.935062 -12.039803 -72.098000
rradius 29.129570
rwrist -10.976625
rhand -6.575885 11.225878
rfingers 7.125020
rthumb 19.276868 -17.759891
lclavicle -0.000000 0.000000
lhumerus -57.082159 33.069740 55.372440
lradius 22.702387
lwrist -8.229605
lhand 1.038395 21.305318
lfingers 7.125020
lthumb 26.581966 49.285910
rfemur -17.424630 18.164588 28.465934
rtibia 31.582820
rfoot -18.136338 -18.505235
rtoes 8.476284
lfemur -29.573952 4.629499 -16.300639
ltibia 58.856747
lfoot -14.091195 14.751817
ltoes -18.203585
26
root 9.242210 15.966300 -26.610400 1.773710 1.634016 0.062196
lowerback -3.287367 2.343465 3.525898
upperback -2.748339 3.107450 1.603558
thorax -0.827474 1.515913 -0.165275
lowerneck -15.167666 0.062242 1.148575
upperneck 41.990246 0.130808 -1.179576
head 19.090649 0.211407 -0.738951
rclavicle -0.000000 0.000000
rhumerus -36.641436 -9.989087 -73.129442
rradius 31.674343
rwrist -12.398007
rhand -6.629772 11.470836
rfingers 7.125020
rthumb 19.221229 -17.520497
lclavicle -0.000000 0.000000
lhumerus -56.434059 32.985958 55.832070
lradius 23.043172
lwrist -7.591866
lhand 0.631709 21.411697
lfingers 7.125020
lthumb 26.191955 49.466056
rfemur -14.721567 17.560881 28.593647
rtibia 29.238295
rfoot -17.721619 -17.566261
rtoes 7.394719
lfemur -31.353905 2.226169 -15.639303
ltibia 50.775604
lfoot -15.596642 16.004269
ltoes -19.341649
27
root 9.248620 16.002100 -26.265200 1.506183 1.634016 0.086927
lowerback -3.434539 2.340969 3.798861
upperback -2.716439 3.090142 1.485786
thorax -0.711095 1.503629 -0.455643
lowerneck -15.173659 0.078187 1.135063
upperneck 41.810418 0.067299 -1.061017
head 18.996730 0.198168 -0.692151
rclavicle -0.000000 0.000000
rhumerus -35.425450 -8.078447 -74.103146
rradius 33.976694
rwrist -13.696132
rhand -6.685683 11.633920
rfingers 7.125020
rthumb 19.163574 -17.370322
lclavicle -0.000000 0.000000
lhumerus -55.771852 32.859963 56.338931
lradius 23.395855
lwrist -6.959244
lhand 0.224787 21.530488
lfingers 7.125020
lthumb 25.801882 49.657549
rfemur -12.103340 16.982961 28.744731
rtibia 27.231158
rfoot -17.302742 -16.655237
rtoes 6.538745
lfemur -32.857110 0.044071 -14.951708
ltibia 43.246137
lfoot -16.672171 16.946327
ltoes -19.915430
28
root 9.251840 16.054000 -25.912300 1.229616 1.634016 0.072602
lowerback -3.580628 2.334071 4.120539
upperback -2.689628 3.064876 1.381245
thorax -0.601278 1.487127 -0.733554
lowerneck -15.160279 0.095133 1.127840
upperneck 41.635071 0.010138 -0.969761
head 18.903460 0.186237 -0.655741
rclavicle -0.000000 0.000000
rhumerus -34.232954 -6.195884 -75.060737
rradius 36.281322
rwrist -14.960860
rhand -6.744497 11.757307
rfingers 7.125020
rthumb 19.102999 -17.265650
lclavicle -0.000000 0.000000
lhumerus -55.060881 32.687648 56.908125
lradius 23.779408
lwrist -6.293331
lhand -0.187381 21.663946
lfingers 7.125020
lthumb 25.406953 49.863934
rfemur -9.477904 16.410915 28.936177
rtibia 25.065374
rfoot -16.817170 -15.751194
rtoes 5.746047
lfemur -34.287930 -2.165867 -14.147981
ltibia 35.631303
lfoot -17.611311 17.846305
ltoes -20.297339
29
root 9.251340 16.118500 -25.555100 1.555048 1.634016 -0.132526
lowerback -3.954629 2.502117 4.444337
upperback -2.714205 3.247935 1.477376
thorax -0.447065 1.575356 -0.716102
lowerneck -15.291851 0.118926 1.044686
upperneck 41.260327 0.033704 -0.901147
head 18.719327 0.177858 -0.605886
rclavicle -0.000000 0.000000
rhumerus -33.875233 -5.517683 -75.459542
rradius 37.799915
rwrist -15.368210
rhand -6.773334 11.601987
rfingers 7.125020
rthumb 19.074444 -17.427496
lclavicle -0.000000 0.000000
lhumerus -53.973980 32.070586 57.744464
lradius 24.517221
lwrist -5.722175
lhand -0.631496 22.097047
lfingers 7.125020
lthumb 24.977156 50.366025
rfemur -6.019515 16.645007 29.302439
rtibia 20.914735
rfoot -15.126722 -14.660673
rtoes 3.347989
lfemur -34.537075 -6.174676 -11.081087
ltibia 29.042950
lfoot -16.798580 17.825562
ltoes -21.964385
